<svg xmlns="http://www.w3.org/2000/svg" xmlns:xlink="http://www.w3.org/1999/xlink" width="600" viewBox="0 0 600 600" height="600" version="1.0"><defs><clipPath id="a"><path d="M 108.488281 95.816406 L 481.238281 95.816406 L 481.238281 468.566406 L 108.488281 468.566406 Z M 108.488281 95.816406"/></clipPath><clipPath id="b"><path d="M 468.8125 344.316406 L 381.839844 344.316406 L 381.839844 220.066406 L 468.8125 220.066406 C 475.648438 220.066406 481.238281 214.472656 481.238281 207.640625 C 481.238281 200.808594 475.648438 195.214844 468.8125 195.214844 L 381.839844 195.214844 L 381.839844 108.242188 C 381.839844 101.40625 376.246094 95.816406 369.414062 95.816406 C 362.578125 95.816406 356.988281 101.40625 356.988281 108.242188 L 356.988281 195.214844 L 232.738281 195.214844 L 232.738281 108.242188 C 232.738281 101.40625 227.148438 95.816406 220.3125 95.816406 C 213.480469 95.816406 207.886719 101.40625 207.886719 108.242188 L 207.886719 195.214844 L 120.914062 195.214844 C 114.078125 195.214844 108.488281 200.808594 108.488281 207.640625 C 108.488281 214.472656 114.078125 220.066406 120.914062 220.066406 L 207.886719 220.066406 L 207.886719 344.316406 L 120.914062 344.316406 C 114.078125 344.316406 108.488281 349.90625 108.488281 356.742188 C 108.488281 363.574219 114.078125 369.164062 120.914062 369.164062 L 207.886719 369.164062 L 207.886719 456.140625 C 207.886719 462.972656 213.480469 468.566406 220.3125 468.566406 C 227.148438 468.566406 232.738281 462.972656 232.738281 456.140625 L 232.738281 369.164062 L 356.988281 369.164062 L 356.988281 456.140625 C 356.988281 462.972656 362.578125 468.566406 369.414062 468.566406 C 376.246094 468.566406 381.839844 462.972656 381.839844 456.140625 L 381.839844 369.164062 L 468.8125 369.164062 C 475.648438 369.164062 481.238281 363.574219 481.238281 356.742188 C 481.238281 349.90625 475.648438 344.316406 468.8125 344.316406 Z M 232.738281 344.316406 L 232.738281 220.066406 L 356.988281 220.066406 L 356.988281 344.316406 Z M 232.738281 344.316406"/></clipPath><clipPath id="d"><path d="M 116 117 L 192 117 L 192 186 L 116 186 Z M 116 117"/></clipPath><clipPath id="e"><path d="M 108.488281 120.121094 L 182.394531 107.367188 L 193.75 173.144531 L 119.84375 185.898438 Z M 108.488281 120.121094"/></clipPath><clipPath id="f"><path d="M 108.488281 120.121094 L 182.394531 107.367188 L 193.75 173.144531 L 119.84375 185.898438 Z M 108.488281 120.121094"/></clipPath><clipPath id="g"><path d="M 259 252 L 335 252 L 335 322 L 259 322 Z M 259 252"/></clipPath><clipPath id="h"><path d="M 252.164062 255.570312 L 326.070312 242.816406 L 337.425781 308.59375 L 263.519531 321.347656 Z M 252.164062 255.570312"/></clipPath><clipPath id="i"><path d="M 252.164062 255.570312 L 326.070312 242.816406 L 337.425781 308.59375 L 263.519531 321.347656 Z M 252.164062 255.570312"/></clipPath><clipPath id="j"><path d="M 392 380 L 470 380 L 470 458 L 392 458 Z M 392 380"/></clipPath><clipPath id="k"><path d="M 464.71875 463.058594 L 387.546875 451.738281 L 398.648438 376.046875 L 475.824219 387.367188 Z M 464.71875 463.058594"/></clipPath><clipPath id="l"><path d="M 464.71875 463.058594 L 387.546875 451.738281 L 398.648438 376.046875 L 475.824219 387.367188 Z M 464.71875 463.058594"/></clipPath><clipPath id="m"><path d="M 435 396 L 471 396 L 471 444 L 435 444 Z M 435 396"/></clipPath><clipPath id="n"><path d="M 464.71875 463.058594 L 387.546875 451.738281 L 398.648438 376.046875 L 475.824219 387.367188 Z M 464.71875 463.058594"/></clipPath><clipPath id="o"><path d="M 464.71875 463.058594 L 387.546875 451.738281 L 398.648438 376.046875 L 475.824219 387.367188 Z M 464.71875 463.058594"/></clipPath><clipPath id="p"><path d="M 419 384 L 468 384 L 468 435 L 419 435 Z M 419 384"/></clipPath><clipPath id="q"><path d="M 464.71875 463.058594 L 387.546875 451.738281 L 398.648438 376.046875 L 475.824219 387.367188 Z M 464.71875 463.058594"/></clipPath><clipPath id="r"><path d="M 464.71875 463.058594 L 387.546875 451.738281 L 398.648438 376.046875 L 475.824219 387.367188 Z M 464.71875 463.058594"/></clipPath><clipPath id="s"><path d="M 392 107 L 470 107 L 470 186 L 392 186 Z M 392 107"/></clipPath><clipPath id="t"><path d="M 464.71875 190.265625 L 387.546875 178.945312 L 398.648438 103.257812 L 475.824219 114.578125 Z M 464.71875 190.265625"/></clipPath><clipPath id="u"><path d="M 464.71875 190.265625 L 387.546875 178.945312 L 398.648438 103.257812 L 475.824219 114.578125 Z M 464.71875 190.265625"/></clipPath><clipPath id="v"><path d="M 435 123 L 471 123 L 471 171 L 435 171 Z M 435 123"/></clipPath><clipPath id="w"><path d="M 464.71875 190.265625 L 387.546875 178.945312 L 398.648438 103.257812 L 475.824219 114.578125 Z M 464.71875 190.265625"/></clipPath><clipPath id="x"><path d="M 464.71875 190.265625 L 387.546875 178.945312 L 398.648438 103.257812 L 475.824219 114.578125 Z M 464.71875 190.265625"/></clipPath><clipPath id="y"><path d="M 419 112 L 468 112 L 468 162 L 419 162 Z M 419 112"/></clipPath><clipPath id="z"><path d="M 464.71875 190.265625 L 387.546875 178.945312 L 398.648438 103.257812 L 475.824219 114.578125 Z M 464.71875 190.265625"/></clipPath><clipPath id="A"><path d="M 464.71875 190.265625 L 387.546875 178.945312 L 398.648438 103.257812 L 475.824219 114.578125 Z M 464.71875 190.265625"/></clipPath><linearGradient x1="0" gradientTransform="matrix(.77656 0 0 .77656 108.488 95.816)" y1="240" x2="480" gradientUnits="userSpaceOnUse" y2="240" xlink:type="simple" xlink:actuate="onLoad" id="c" xlink:show="other"><stop stop-color="#FFD509" offset="0"/><stop stop-color="#FFD509" offset=".063"/><stop stop-color="#FFD509" offset=".094"/><stop stop-color="#FFD509" offset=".102"/><stop stop-color="#FED309" offset=".105"/><stop stop-color="#FED209" offset=".109"/><stop stop-color="#FDD109" offset=".113"/><stop stop-color="#FDD009" offset=".117"/><stop stop-color="#FCCE0A" offset=".121"/><stop stop-color="#FCCD0A" offset=".125"/><stop stop-color="#FBCC0A" offset=".129"/><stop stop-color="#FBCB0A" offset=".133"/><stop stop-color="#FACA0A" offset=".137"/><stop stop-color="#FAC80A" offset=".141"/><stop stop-color="#F9C70A" offset=".145"/><stop stop-color="#F9C60B" offset=".148"/><stop stop-color="#F8C50B" offset=".152"/><stop stop-color="#F8C40B" offset=".156"/><stop stop-color="#F7C20B" offset=".16"/><stop stop-color="#F7C10B" offset=".164"/><stop stop-color="#F6C00B" offset=".168"/><stop stop-color="#F6BF0B" offset=".172"/><stop stop-color="#F5BD0B" offset=".176"/><stop stop-color="#F4BC0C" offset=".18"/><stop stop-color="#F4BB0C" offset=".184"/><stop stop-color="#F3BA0C" offset=".188"/><stop stop-color="#F3B90C" offset=".191"/><stop stop-color="#F2B70C" offset=".195"/><stop stop-color="#F2B60C" offset=".199"/><stop stop-color="#F1B50C" offset=".203"/><stop stop-color="#F1B40C" offset=".207"/><stop stop-color="#F0B30D" offset=".211"/><stop stop-color="#F0B10D" offset=".215"/><stop stop-color="#EFB00D" offset=".219"/><stop stop-color="#EFAF0D" offset=".223"/><stop stop-color="#EEAE0D" offset=".227"/><stop stop-color="#EEAD0D" offset=".23"/><stop stop-color="#EDAB0D" offset=".234"/><stop stop-color="#EDAA0D" offset=".238"/><stop stop-color="#ECA90E" offset=".242"/><stop stop-color="#ECA80E" offset=".246"/><stop stop-color="#EBA70E" offset=".25"/><stop stop-color="#EBA50E" offset=".254"/><stop stop-color="#EAA40E" offset=".258"/><stop stop-color="#EAA30E" offset=".262"/><stop stop-color="#E9A20E" offset=".266"/><stop stop-color="#E9A00E" offset=".27"/><stop stop-color="#E89F0F" offset=".273"/><stop stop-color="#E89E0F" offset=".277"/><stop stop-color="#E79D0F" offset=".281"/><stop stop-color="#E79C0F" offset=".285"/><stop stop-color="#E69A0F" offset=".289"/><stop stop-color="#E6990F" offset=".293"/><stop stop-color="#E5980F" offset=".297"/><stop stop-color="#E49710" offset=".301"/><stop stop-color="#E49610" offset=".305"/><stop stop-color="#E39410" offset=".309"/><stop stop-color="#E39310" offset=".313"/><stop stop-color="#E29210" offset=".316"/><stop stop-color="#E29110" offset=".32"/><stop stop-color="#E19010" offset=".324"/><stop stop-color="#E18E10" offset=".328"/><stop stop-color="#E08D11" offset=".332"/><stop stop-color="#E08C11" offset=".336"/><stop stop-color="#DF8B11" offset=".34"/><stop stop-color="#DF8A11" offset=".344"/><stop stop-color="#DE8811" offset=".348"/><stop stop-color="#DE8711" offset=".352"/><stop stop-color="#DE8711" offset=".355"/><stop stop-color="#DE8611" offset=".359"/><stop stop-color="#DD8511" offset=".363"/><stop stop-color="#DD8511" offset=".367"/><stop stop-color="#DD8411" offset=".371"/><stop stop-color="#DD8311" offset=".375"/><stop stop-color="#DD8211" offset=".379"/><stop stop-color="#DC8211" offset=".383"/><stop stop-color="#DC8111" offset=".387"/><stop stop-color="#DC8011" offset=".391"/><stop stop-color="#DC8011" offset=".395"/><stop stop-color="#DC7F11" offset=".398"/><stop stop-color="#DB7E11" offset=".402"/><stop stop-color="#DB7D11" offset=".406"/><stop stop-color="#DB7D11" offset=".41"/><stop stop-color="#DB7C11" offset=".414"/><stop stop-color="#DB7B11" offset=".418"/><stop stop-color="#DA7B11" offset=".422"/><stop stop-color="#DA7A11" offset=".426"/><stop stop-color="#DA7911" offset=".43"/><stop stop-color="#DA7811" offset=".434"/><stop stop-color="#DA7811" offset=".438"/><stop stop-color="#D97711" offset=".441"/><stop stop-color="#D97611" offset=".445"/><stop stop-color="#D97611" offset=".449"/><stop stop-color="#D97511" offset=".453"/><stop stop-color="#D97411" offset=".457"/><stop stop-color="#D87311" offset=".461"/><stop stop-color="#D87312" offset=".465"/><stop stop-color="#D87212" offset=".469"/><stop stop-color="#D87112" offset=".473"/><stop stop-color="#D87112" offset=".477"/><stop stop-color="#D77012" offset=".48"/><stop stop-color="#D76F12" offset=".484"/><stop stop-color="#D76E12" offset=".488"/><stop stop-color="#D76E12" offset=".492"/><stop stop-color="#D76D12" offset=".496"/><stop stop-color="#D66C12" offset=".5"/><stop stop-color="#D66B12" offset=".504"/><stop stop-color="#D66B12" offset=".508"/><stop stop-color="#D66A12" offset=".512"/><stop stop-color="#D66912" offset=".516"/><stop stop-color="#D56912" offset=".52"/><stop stop-color="#D56812" offset=".523"/><stop stop-color="#D56712" offset=".527"/><stop stop-color="#D56612" offset=".531"/><stop stop-color="#D56612" offset=".535"/><stop stop-color="#D56512" offset=".539"/><stop stop-color="#D46412" offset=".543"/><stop stop-color="#D46412" offset=".547"/><stop stop-color="#D46312" offset=".551"/><stop stop-color="#D46212" offset=".555"/><stop stop-color="#D46112" offset=".559"/><stop stop-color="#D36112" offset=".563"/><stop stop-color="#D36012" offset=".566"/><stop stop-color="#D35F12" offset=".57"/><stop stop-color="#D35F12" offset=".574"/><stop stop-color="#D35E12" offset=".578"/><stop stop-color="#D25D12" offset=".582"/><stop stop-color="#D25C12" offset=".586"/><stop stop-color="#D25C12" offset=".59"/><stop stop-color="#D25B12" offset=".594"/><stop stop-color="#D25A12" offset=".598"/><stop stop-color="#D15A12" offset=".602"/><stop stop-color="#D15912" offset=".605"/><stop stop-color="#D15812" offset=".609"/><stop stop-color="#D15712" offset=".613"/><stop stop-color="#D15712" offset=".617"/><stop stop-color="#D05612" offset=".621"/><stop stop-color="#D05512" offset=".625"/><stop stop-color="#D05412" offset=".629"/><stop stop-color="#D05412" offset=".633"/><stop stop-color="#CF5312" offset=".637"/><stop stop-color="#CF5212" offset=".641"/><stop stop-color="#CF5112" offset=".645"/><stop stop-color="#CF5012" offset=".648"/><stop stop-color="#CE5012" offset=".652"/><stop stop-color="#CE4F12" offset=".656"/><stop stop-color="#CE4E12" offset=".66"/><stop stop-color="#CD4D12" offset=".664"/><stop stop-color="#CD4C12" offset=".668"/><stop stop-color="#CD4C12" offset=".672"/><stop stop-color="#CD4B12" offset=".676"/><stop stop-color="#CC4A12" offset=".68"/><stop stop-color="#CC4912" offset=".684"/><stop stop-color="#CC4811" offset=".688"/><stop stop-color="#CB4811" offset=".691"/><stop stop-color="#CB4711" offset=".695"/><stop stop-color="#CB4611" offset=".699"/><stop stop-color="#CB4511" offset=".703"/><stop stop-color="#CA4411" offset=".707"/><stop stop-color="#CA4411" offset=".711"/><stop stop-color="#CA4311" offset=".715"/><stop stop-color="#C94211" offset=".719"/><stop stop-color="#C94111" offset=".723"/><stop stop-color="#C94011" offset=".727"/><stop stop-color="#C93F11" offset=".73"/><stop stop-color="#C83F11" offset=".734"/><stop stop-color="#C83E11" offset=".738"/><stop stop-color="#C83D11" offset=".742"/><stop stop-color="#C83C11" offset=".746"/><stop stop-color="#C73B11" offset=".75"/><stop stop-color="#C73B11" offset=".754"/><stop stop-color="#C73A11" offset=".758"/><stop stop-color="#C63911" offset=".762"/><stop stop-color="#C63811" offset=".766"/><stop stop-color="#C63711" offset=".77"/><stop stop-color="#C63711" offset=".773"/><stop stop-color="#C53611" offset=".777"/><stop stop-color="#C53510" offset=".781"/><stop stop-color="#C53410" offset=".785"/><stop stop-color="#C43310" offset=".789"/><stop stop-color="#C43310" offset=".793"/><stop stop-color="#C43210" offset=".797"/><stop stop-color="#C43110" offset=".801"/><stop stop-color="#C33010" offset=".805"/><stop stop-color="#C32F10" offset=".809"/><stop stop-color="#C32E10" offset=".813"/><stop stop-color="#C22E10" offset=".816"/><stop stop-color="#C22D10" offset=".82"/><stop stop-color="#C22C10" offset=".824"/><stop stop-color="#C22B10" offset=".828"/><stop stop-color="#C12A10" offset=".832"/><stop stop-color="#C12A10" offset=".836"/><stop stop-color="#C12910" offset=".84"/><stop stop-color="#C02810" offset=".844"/><stop stop-color="#C02710" offset=".848"/><stop stop-color="#C02610" offset=".852"/><stop stop-color="#C02610" offset=".855"/><stop stop-color="#BF2510" offset=".859"/><stop stop-color="#BF2410" offset=".863"/><stop stop-color="#BF2310" offset=".867"/><stop stop-color="#BF2210" offset=".871"/><stop stop-color="#BE2210" offset=".875"/><stop stop-color="#BE210F" offset=".879"/><stop stop-color="#BE200F" offset=".883"/><stop stop-color="#BD1F0F" offset=".887"/><stop stop-color="#BD1E0F" offset=".891"/><stop stop-color="#BD1D0F" offset=".895"/><stop stop-color="#BD1D0F" offset=".898"/><stop stop-color="#BC1C0F" offset=".902"/><stop stop-color="#BC1B0F" offset=".906"/><stop stop-color="#BC1A0F" offset=".91"/><stop stop-color="#BB190F" offset=".914"/><stop stop-color="#BB190F" offset=".918"/><stop stop-color="#BB180F" offset=".922"/><stop stop-color="#BB180F" offset=".938"/><stop stop-color="#BB180F" offset="1"/></linearGradient></defs><g clip-path="url(#a)"><g clip-path="url(#b)"><path fill="url(#c)" d="M 108.488281 95.816406 L 108.488281 468.566406 L 481.238281 468.566406 L 481.238281 95.816406 Z M 108.488281 95.816406"/></g></g><g clip-path="url(#d)"><g clip-path="url(#e)"><g clip-path="url(#f)"><path fill="#F03E45" d="M 125.503906 117.941406 L 126.394531 117.175781 L 126.859375 117.503906 C 127.167969 117.722656 128.199219 119.726562 129.941406 123.511719 C 131.6875 127.296875 133.859375 130.808594 136.464844 134.035156 C 139.066406 137.265625 140.632812 138.835938 141.164062 138.746094 L 141.960938 138.605469 L 143.207031 136.347656 C 144.039062 134.84375 144.8125 133.414062 145.535156 132.0625 C 146.257812 130.710938 146.921875 129.4375 147.535156 128.242188 C 148.148438 127.046875 148.617188 126.214844 148.945312 125.75 L 149.441406 125.050781 L 151.359375 124.3125 C 152.636719 123.820312 155.1875 123.582031 159.011719 123.605469 L 164.746094 123.636719 L 164.558594 126.121094 C 164.4375 127.777344 163.851562 129.515625 162.800781 131.332031 C 161.75 133.148438 160.917969 134.652344 160.304688 135.847656 C 159.695312 137.046875 158.753906 138.707031 157.484375 140.832031 C 156.214844 142.960938 155.273438 144.621094 154.660156 145.816406 C 154.050781 147.011719 153.8125 148.007812 153.949219 148.800781 L 154.152344 149.992188 L 157.113281 151.730469 C 159.085938 152.886719 161.933594 153.964844 165.648438 154.957031 C 169.367188 155.953125 174.542969 156.695312 181.175781 157.183594 L 191.121094 157.917969 L 187.160156 161.054688 C 184.523438 163.148438 182.453125 164.59375 180.957031 165.398438 C 179.457031 166.203125 177.226562 166.722656 174.269531 166.960938 C 171.308594 167.199219 167.75 167.132812 163.59375 166.757812 C 159.4375 166.386719 156.496094 165.941406 154.769531 165.421875 C 153.042969 164.902344 151.296875 164.25 149.523438 163.464844 C 147.75 162.679688 146.46875 162.355469 145.671875 162.492188 L 144.480469 162.699219 L 140.464844 167.890625 C 137.789062 171.347656 135.75 173.746094 134.34375 175.078125 C 132.933594 176.410156 131.660156 177.722656 130.519531 179.007812 C 129.378906 180.296875 127.707031 181.675781 125.503906 183.144531 C 123.304688 184.613281 121.804688 185.417969 121.011719 185.554688 L 119.816406 185.761719 L 120.242188 184.667969 C 120.527344 183.9375 121.058594 182.683594 121.847656 180.914062 C 122.632812 179.144531 123.441406 177.503906 124.269531 176 C 125.101562 174.492188 125.996094 172.566406 126.957031 170.222656 C 127.914062 167.875 128.921875 165.792969 129.972656 163.976562 C 131.019531 162.160156 131.9375 160.367188 132.726562 158.597656 L 133.902344 155.941406 L 133.230469 154.421875 C 132.785156 153.410156 132.070312 152.441406 131.09375 151.519531 C 130.117188 150.597656 128.226562 148.335938 125.421875 144.730469 C 122.617188 141.128906 120.457031 138.09375 118.941406 135.632812 C 117.421875 133.167969 116.597656 131.539062 116.460938 130.746094 L 116.253906 129.554688 L 120.433594 124.132812 C 123.21875 120.515625 124.910156 118.453125 125.503906 117.941406 Z M 125.503906 117.941406" fill-rule="evenodd"/></g></g></g><g clip-path="url(#g)"><g clip-path="url(#h)"><g clip-path="url(#i)"><path fill="#F03E45" d="M 269.179688 253.390625 L 270.070312 252.625 L 270.535156 252.953125 C 270.847656 253.171875 271.875 255.171875 273.617188 258.960938 C 275.363281 262.746094 277.539062 266.253906 280.140625 269.484375 C 282.742188 272.714844 284.3125 274.285156 284.839844 274.191406 L 285.636719 274.054688 L 286.882812 271.796875 C 287.714844 270.289062 288.488281 268.863281 289.210938 267.511719 C 289.933594 266.160156 290.597656 264.886719 291.210938 263.691406 C 291.824219 262.496094 292.292969 261.664062 292.621094 261.199219 L 293.117188 260.5 L 295.035156 259.761719 C 296.3125 259.269531 298.863281 259.03125 302.6875 259.054688 L 308.421875 259.085938 L 308.234375 261.570312 C 308.113281 263.226562 307.527344 264.964844 306.476562 266.78125 C 305.425781 268.597656 304.59375 270.101562 303.980469 271.296875 C 303.371094 272.492188 302.429688 274.15625 301.160156 276.28125 C 299.890625 278.410156 298.949219 280.070312 298.335938 281.265625 C 297.726562 282.460938 297.488281 283.457031 297.625 284.25 L 297.828125 285.441406 L 300.789062 287.179688 C 302.761719 288.335938 305.609375 289.414062 309.324219 290.40625 C 313.042969 291.398438 318.21875 292.140625 324.851562 292.632812 L 334.796875 293.367188 L 330.839844 296.503906 C 328.199219 298.59375 326.128906 300.042969 324.632812 300.847656 C 323.132812 301.648438 320.902344 302.171875 317.945312 302.410156 C 314.984375 302.648438 311.425781 302.582031 307.269531 302.207031 C 303.113281 301.835938 300.171875 301.386719 298.445312 300.867188 C 296.71875 300.347656 294.972656 299.699219 293.199219 298.914062 C 291.425781 298.128906 290.144531 297.804688 289.347656 297.941406 L 288.15625 298.148438 L 284.140625 303.339844 C 281.464844 306.796875 279.425781 309.195312 278.019531 310.527344 C 276.609375 311.859375 275.335938 313.171875 274.195312 314.457031 C 273.054688 315.746094 271.382812 317.125 269.179688 318.59375 C 266.980469 320.0625 265.480469 320.867188 264.6875 321.003906 L 263.496094 321.210938 L 263.917969 320.113281 C 264.203125 319.382812 264.738281 318.132812 265.523438 316.363281 C 266.308594 314.59375 267.117188 312.953125 267.945312 311.449219 C 268.777344 309.941406 269.671875 308.015625 270.632812 305.671875 C 271.589844 303.324219 272.597656 301.242188 273.648438 299.425781 C 274.695312 297.609375 275.613281 295.816406 276.402344 294.046875 L 277.578125 291.390625 L 276.90625 289.871094 C 276.460938 288.855469 275.746094 287.890625 274.769531 286.96875 C 273.792969 286.046875 271.902344 283.785156 269.097656 280.179688 C 266.292969 276.578125 264.132812 273.542969 262.617188 271.078125 C 261.101562 268.617188 260.273438 266.988281 260.136719 266.191406 L 259.929688 265.003906 L 264.109375 259.578125 C 266.894531 255.964844 268.585938 253.902344 269.179688 253.390625 Z M 269.179688 253.390625" fill-rule="evenodd"/></g></g></g><g clip-path="url(#j)"><g clip-path="url(#k)"><g clip-path="url(#l)"><path fill="#FF914D" d="M 427.65625 380.320312 C 420.601562 381.054688 414.03125 383.714844 408.519531 387.792969 C 400.457031 393.691406 394.742188 402.628906 393.195312 413.191406 C 391.644531 423.75 394.539062 434.035156 400.558594 442.082031 C 406.585938 450.046875 415.5625 455.832031 426.253906 457.398438 C 436.867188 458.957031 447.121094 455.992188 455.101562 450.085938 C 461.765625 445.078125 466.871094 437.988281 469.289062 429.578125 C 461.386719 440.722656 448.1875 445.277344 435.992188 442.984375 C 433.464844 443.453125 430.917969 443.503906 428.347656 443.125 C 421.632812 442.140625 415.984375 438.53125 412.160156 433.417969 C 400.902344 418.367188 410.832031 388.21875 427.65625 380.320312" fill-rule="evenodd"/></g></g></g><g clip-path="url(#m)"><g clip-path="url(#n)"><g clip-path="url(#o)"><path fill="#FFBD59" d="M 457.34375 430.777344 C 455.253906 432.324219 453.046875 433.515625 450.71875 434.355469 C 449.472656 435.941406 448 437.328125 446.382812 438.523438 C 443.34375 440.773438 439.808594 442.363281 435.992188 442.984375 C 448.1875 445.277344 461.386719 440.722656 469.289062 429.578125 C 469.777344 427.964844 470.117188 426.246094 470.371094 424.511719 C 471.882812 414.199219 469.1875 404.28125 463.574219 396.375 C 470.332031 406.890625 469.132812 421.96875 457.34375 430.777344" fill-rule="evenodd"/></g></g></g><g clip-path="url(#p)"><g clip-path="url(#q)"><g clip-path="url(#r)"><path fill="#FF914D" d="M 450.71875 434.355469 C 453.046875 433.515625 455.253906 432.324219 457.34375 430.777344 C 469.132812 421.96875 470.332031 406.890625 463.574219 396.375 C 463.433594 396.1875 463.289062 395.996094 463.078125 395.714844 C 461.804688 394.007812 460.421875 392.460938 458.863281 390.964844 C 455.402344 388.015625 451.046875 385.941406 445.910156 385.1875 C 434.46875 383.511719 424.832031 389.175781 419.863281 397.632812 C 424.46875 395.105469 429.875 394.046875 435.429688 394.859375 C 442.0625 395.832031 447.726562 399.359375 451.476562 404.378906 C 455.15625 409.300781 457.011719 415.726562 456.03125 422.40625 C 455.363281 426.945312 453.492188 431.054688 450.71875 434.355469" fill-rule="evenodd"/></g></g></g><g clip-path="url(#s)"><g clip-path="url(#t)"><g clip-path="url(#u)"><path fill="#FF914D" d="M 427.65625 107.527344 C 420.601562 108.265625 414.03125 110.921875 408.519531 115.003906 C 400.457031 120.902344 394.742188 129.839844 393.195312 140.398438 C 391.644531 150.960938 394.539062 161.246094 400.558594 169.292969 C 406.585938 177.257812 415.5625 183.039062 426.253906 184.609375 C 436.867188 186.164062 447.121094 183.203125 455.101562 177.292969 C 461.765625 172.285156 466.871094 165.199219 469.289062 156.789062 C 461.386719 167.933594 448.1875 172.484375 435.992188 170.191406 C 433.464844 170.664062 430.917969 170.710938 428.347656 170.335938 C 421.632812 169.347656 415.984375 165.738281 412.160156 160.628906 C 400.902344 145.574219 410.832031 115.425781 427.65625 107.527344" fill-rule="evenodd"/></g></g></g><g clip-path="url(#v)"><g clip-path="url(#w)"><g clip-path="url(#x)"><path fill="#FFBD59" d="M 457.34375 157.984375 C 455.253906 159.53125 453.046875 160.726562 450.71875 161.5625 C 449.472656 163.152344 448 164.535156 446.382812 165.730469 C 443.34375 167.984375 439.808594 169.570312 435.992188 170.191406 C 448.1875 172.484375 461.386719 167.933594 469.289062 156.789062 C 469.777344 155.171875 470.117188 153.453125 470.371094 151.71875 C 471.882812 141.40625 469.1875 131.488281 463.574219 123.585938 C 470.332031 134.097656 469.132812 149.179688 457.34375 157.984375" fill-rule="evenodd"/></g></g></g><g clip-path="url(#y)"><g clip-path="url(#z)"><g clip-path="url(#A)"><path fill="#FF914D" d="M 450.71875 161.5625 C 453.046875 160.726562 455.253906 159.53125 457.34375 157.984375 C 469.132812 149.179688 470.332031 134.097656 463.574219 123.585938 C 463.433594 123.394531 463.289062 123.207031 463.078125 122.921875 C 461.804688 121.21875 460.421875 119.667969 458.863281 118.175781 C 455.402344 115.222656 451.046875 113.152344 445.910156 112.398438 C 434.46875 110.71875 424.832031 116.386719 419.863281 124.84375 C 424.46875 122.316406 429.875 121.253906 435.429688 122.070312 C 442.0625 123.042969 447.726562 126.570312 451.476562 131.585938 C 455.15625 136.507812 457.011719 142.933594 456.03125 149.617188 C 455.363281 154.152344 453.492188 158.261719 450.71875 161.5625" fill-rule="evenodd"/></g></g></g></svg>